# MagicaVoxel @ Ephtracy

# group
o slider

# material
mtllib arena.vox-3-slider.mtl
usemtl palette

# normals
vn 1 0 0
vn -1 0 0
vn 0 0 1
vn 0 0 -1
vn 0 -1 0
vn 0 1 0

# texcoords
vt 0.947266 0.5
vt 0.951172 0.5

# verts
v 4.1 2.3 0
v 4.1 2.3 -0.1
v 4.1 2.4 0.1
v 4.1 2.4 0
v 4.1 2.4 -0.1
v 4.1 2.4 -0.2
v 4.1 2.6 0.1
v 4.1 2.6 0
v 4.1 2.6 -0.1
v 4.1 2.6 -0.2
v 4.1 2.8 0.1
v 4.1 2.8 0
v 4.1 2.8 -0.1
v 4.1 2.8 -0.2
v 4.1 2.9 0.1
v 4.1 2.9 -0.2
v 3.2 2.8 0.1
v 3.2 2.8 -0.2
v 3.2 2.9 0.1
v 3.2 2.9 -0.2
v 3.1 2.6 0
v 3.1 2.6 -0.1
v 3.1 2.8 0
v 3.1 2.8 -0.1
v 1.2 2.8 0.1
v 1.2 2.8 -0.2
v 1.2 2.9 0.1
v 1.2 2.9 -0.2
v 1.1 2.6 0
v 1.1 2.6 -0.1
v 1.1 2.8 0
v 1.1 2.8 -0.1
v -0.8 2.8 0.1
v -0.8 2.8 -0.2
v -0.8 2.9 0.1
v -0.8 2.9 -0.2
v -0.9 2.6 0
v -0.9 2.6 -0.1
v -0.9 2.8 0
v -0.9 2.8 -0.1
v -2.8 2.8 0.1
v -2.8 2.8 -0.2
v -2.8 2.9 0.1
v -2.8 2.9 -0.2
v -2.9 2.6 0
v -2.9 2.6 -0.1
v -2.9 2.8 0
v -2.9 2.8 -0.1
v -3.8 2.6 0
v -3.8 2.6 -0.1
v -3.8 2.8 0.1
v -3.8 2.8 0
v -3.8 2.8 -0.1
v -3.8 2.8 -0.2
v -3.8 2.9 0.1
v -3.8 2.9 -0.2
v 3.9 2.6 0
v 3.9 2.6 -0.1
v 3.9 2.8 0.1
v 3.9 2.8 0
v 3.9 2.8 -0.1
v 3.9 2.8 -0.2
v 3.9 2.9 0.1
v 3.9 2.9 -0.2
v 3 2.6 0
v 3 2.6 -0.1
v 3 2.8 0
v 3 2.8 -0.1
v 2.9 2.8 0.1
v 2.9 2.8 -0.2
v 2.9 2.9 0.1
v 2.9 2.9 -0.2
v 1 2.6 0
v 1 2.6 -0.1
v 1 2.8 0
v 1 2.8 -0.1
v 0.9 2.8 0.1
v 0.9 2.8 -0.2
v 0.9 2.9 0.1
v 0.9 2.9 -0.2
v -1 2.6 0
v -1 2.6 -0.1
v -1 2.8 0
v -1 2.8 -0.1
v -1.1 2.8 0.1
v -1.1 2.8 -0.2
v -1.1 2.9 0.1
v -1.1 2.9 -0.2
v -3 2.6 0
v -3 2.6 -0.1
v -3 2.8 0
v -3 2.8 -0.1
v -3.1 2.8 0.1
v -3.1 2.8 -0.2
v -3.1 2.9 0.1
v -3.1 2.9 -0.2
v -4 2.3 0
v -4 2.3 -0.1
v -4 2.4 0.1
v -4 2.4 0
v -4 2.4 -0.1
v -4 2.4 -0.2
v -4 2.6 0.1
v -4 2.6 0
v -4 2.6 -0.1
v -4 2.6 -0.2
v -4 2.8 0.1
v -4 2.8 0
v -4 2.8 -0.1
v -4 2.8 -0.2
v -4 2.9 0.1
v -4 2.9 -0.2
v 4.1 2.4 0.1
v 4.1 2.6 0.1
v 4.1 2.8 0.1
v 4.1 2.9 0.1
v 3.9 2.8 0.1
v 3.9 2.9 0.1
v 3.2 2.8 0.1
v 3.2 2.9 0.1
v 2.9 2.8 0.1
v 2.9 2.9 0.1
v 1.2 2.8 0.1
v 1.2 2.9 0.1
v 0.9 2.8 0.1
v 0.9 2.9 0.1
v -0.8 2.8 0.1
v -0.8 2.9 0.1
v -1.1 2.8 0.1
v -1.1 2.9 0.1
v -2.8 2.8 0.1
v -2.8 2.9 0.1
v -3.1 2.8 0.1
v -3.1 2.9 0.1
v -3.8 2.8 0.1
v -3.8 2.9 0.1
v -4 2.4 0.1
v -4 2.6 0.1
v -4 2.8 0.1
v -4 2.9 0.1
v 4.1 2.3 0
v 4.1 2.4 0
v 4.1 2.6 0
v 4.1 2.8 0
v 3.9 2.6 0
v 3.9 2.8 0
v 3.1 2.6 0
v 3.1 2.8 0
v 3 2.6 0
v 3 2.8 0
v 1.1 2.6 0
v 1.1 2.8 0
v 1 2.6 0
v 1 2.8 0
v -0.9 2.6 0
v -0.9 2.8 0
v -1 2.6 0
v -1 2.8 0
v -2.9 2.6 0
v -2.9 2.8 0
v -3 2.6 0
v -3 2.8 0
v -3.8 2.6 0
v -3.8 2.8 0
v -4 2.3 0
v -4 2.4 0
v -4 2.6 0
v -4 2.8 0
v 4.1 2.3 -0.1
v 4.1 2.4 -0.1
v 4.1 2.6 -0.1
v 4.1 2.8 -0.1
v 3.9 2.6 -0.1
v 3.9 2.8 -0.1
v 3.1 2.6 -0.1
v 3.1 2.8 -0.1
v 3 2.6 -0.1
v 3 2.8 -0.1
v 1.1 2.6 -0.1
v 1.1 2.8 -0.1
v 1 2.6 -0.1
v 1 2.8 -0.1
v -0.9 2.6 -0.1
v -0.9 2.8 -0.1
v -1 2.6 -0.1
v -1 2.8 -0.1
v -2.9 2.6 -0.1
v -2.9 2.8 -0.1
v -3 2.6 -0.1
v -3 2.8 -0.1
v -3.8 2.6 -0.1
v -3.8 2.8 -0.1
v -4 2.3 -0.1
v -4 2.4 -0.1
v -4 2.6 -0.1
v -4 2.8 -0.1
v 4.1 2.4 -0.2
v 4.1 2.6 -0.2
v 4.1 2.8 -0.2
v 4.1 2.9 -0.2
v 3.9 2.8 -0.2
v 3.9 2.9 -0.2
v 3.2 2.8 -0.2
v 3.2 2.9 -0.2
v 2.9 2.8 -0.2
v 2.9 2.9 -0.2
v 1.2 2.8 -0.2
v 1.2 2.9 -0.2
v 0.9 2.8 -0.2
v 0.9 2.9 -0.2
v -0.8 2.8 -0.2
v -0.8 2.9 -0.2
v -1.1 2.8 -0.2
v -1.1 2.9 -0.2
v -2.8 2.8 -0.2
v -2.8 2.9 -0.2
v -3.1 2.8 -0.2
v -3.1 2.9 -0.2
v -3.8 2.8 -0.2
v -3.8 2.9 -0.2
v -4 2.4 -0.2
v -4 2.6 -0.2
v -4 2.8 -0.2
v -4 2.9 -0.2
v 4.1 2.3 0
v -4 2.3 0
v 4.1 2.3 -0.1
v -4 2.3 -0.1
v 4.1 2.4 0.1
v -4 2.4 0.1
v 4.1 2.4 0
v -4 2.4 0
v 4.1 2.4 -0.1
v -4 2.4 -0.1
v 4.1 2.4 -0.2
v -4 2.4 -0.2
v 4.1 2.8 0.1
v 3.9 2.8 0.1
v 3.2 2.8 0.1
v 2.9 2.8 0.1
v 1.2 2.8 0.1
v 0.9 2.8 0.1
v -0.8 2.8 0.1
v -1.1 2.8 0.1
v -2.8 2.8 0.1
v -3.1 2.8 0.1
v -3.8 2.8 0.1
v -4 2.8 0.1
v 4.1 2.8 0
v 3.9 2.8 0
v 3.1 2.8 0
v 3 2.8 0
v 1.1 2.8 0
v 1 2.8 0
v -0.9 2.8 0
v -1 2.8 0
v -2.9 2.8 0
v -3 2.8 0
v -3.8 2.8 0
v -4 2.8 0
v 4.1 2.8 -0.1
v 3.9 2.8 -0.1
v 3.1 2.8 -0.1
v 3 2.8 -0.1
v 1.1 2.8 -0.1
v 1 2.8 -0.1
v -0.9 2.8 -0.1
v -1 2.8 -0.1
v -2.9 2.8 -0.1
v -3 2.8 -0.1
v -3.8 2.8 -0.1
v -4 2.8 -0.1
v 4.1 2.8 -0.2
v 3.9 2.8 -0.2
v 3.2 2.8 -0.2
v 2.9 2.8 -0.2
v 1.2 2.8 -0.2
v 0.9 2.8 -0.2
v -0.8 2.8 -0.2
v -1.1 2.8 -0.2
v -2.8 2.8 -0.2
v -3.1 2.8 -0.2
v -3.8 2.8 -0.2
v -4 2.8 -0.2
v 4.1 2.6 0.1
v -4 2.6 0.1
v 4.1 2.6 0
v 3.9 2.6 0
v 3.1 2.6 0
v 3 2.6 0
v 1.1 2.6 0
v 1 2.6 0
v -0.9 2.6 0
v -1 2.6 0
v -2.9 2.6 0
v -3 2.6 0
v -3.8 2.6 0
v -4 2.6 0
v 4.1 2.6 -0.1
v 3.9 2.6 -0.1
v 3.1 2.6 -0.1
v 3 2.6 -0.1
v 1.1 2.6 -0.1
v 1 2.6 -0.1
v -0.9 2.6 -0.1
v -1 2.6 -0.1
v -2.9 2.6 -0.1
v -3 2.6 -0.1
v -3.8 2.6 -0.1
v -4 2.6 -0.1
v 4.1 2.6 -0.2
v -4 2.6 -0.2
v 4.1 2.9 0.1
v 3.9 2.9 0.1
v 3.2 2.9 0.1
v 2.9 2.9 0.1
v 1.2 2.9 0.1
v 0.9 2.9 0.1
v -0.8 2.9 0.1
v -1.1 2.9 0.1
v -2.8 2.9 0.1
v -3.1 2.9 0.1
v -3.8 2.9 0.1
v -4 2.9 0.1
v 4.1 2.9 -0.2
v 3.9 2.9 -0.2
v 3.2 2.9 -0.2
v 2.9 2.9 -0.2
v 1.2 2.9 -0.2
v 0.9 2.9 -0.2
v -0.8 2.9 -0.2
v -1.1 2.9 -0.2
v -2.8 2.9 -0.2
v -3.1 2.9 -0.2
v -3.8 2.9 -0.2
v -4 2.9 -0.2

# faces
f 1/2/1 2/2/1 4/2/1
f 4/2/1 2/2/1 5/2/1
f 3/2/1 4/2/1 7/2/1
f 5/2/1 6/2/1 7/2/1
f 4/2/1 5/2/1 7/2/1
f 7/2/1 6/2/1 8/2/1
f 8/2/1 6/2/1 9/2/1
f 9/2/1 6/2/1 10/2/1
f 8/1/1 9/1/1 12/1/1
f 12/1/1 9/1/1 13/1/1
f 11/1/1 12/1/1 15/1/1
f 13/1/1 14/1/1 15/1/1
f 12/1/1 13/1/1 15/1/1
f 15/1/1 14/1/1 16/1/1
f 17/1/1 18/1/1 19/1/1
f 19/1/1 18/1/1 20/1/1
f 21/1/1 22/1/1 23/1/1
f 23/1/1 22/1/1 24/1/1
f 25/1/1 26/1/1 27/1/1
f 27/1/1 26/1/1 28/1/1
f 29/1/1 30/1/1 31/1/1
f 31/1/1 30/1/1 32/1/1
f 33/1/1 34/1/1 35/1/1
f 35/1/1 34/1/1 36/1/1
f 37/1/1 38/1/1 39/1/1
f 39/1/1 38/1/1 40/1/1
f 41/1/1 42/1/1 43/1/1
f 43/1/1 42/1/1 44/1/1
f 45/1/1 46/1/1 47/1/1
f 47/1/1 46/1/1 48/1/1
f 49/1/1 50/1/1 52/1/1
f 52/1/1 50/1/1 53/1/1
f 51/1/1 52/1/1 55/1/1
f 53/1/1 54/1/1 55/1/1
f 52/1/1 53/1/1 55/1/1
f 55/1/1 54/1/1 56/1/1
f 60/1/2 58/1/2 57/1/2
f 61/1/2 58/1/2 60/1/2
f 63/1/2 60/1/2 59/1/2
f 63/1/2 62/1/2 61/1/2
f 63/1/2 61/1/2 60/1/2
f 64/1/2 62/1/2 63/1/2
f 67/1/2 66/1/2 65/1/2
f 68/1/2 66/1/2 67/1/2
f 71/1/2 70/1/2 69/1/2
f 72/1/2 70/1/2 71/1/2
f 75/1/2 74/1/2 73/1/2
f 76/1/2 74/1/2 75/1/2
f 79/1/2 78/1/2 77/1/2
f 80/1/2 78/1/2 79/1/2
f 83/1/2 82/1/2 81/1/2
f 84/1/2 82/1/2 83/1/2
f 87/1/2 86/1/2 85/1/2
f 88/1/2 86/1/2 87/1/2
f 91/1/2 90/1/2 89/1/2
f 92/1/2 90/1/2 91/1/2
f 95/1/2 94/1/2 93/1/2
f 96/1/2 94/1/2 95/1/2
f 100/2/2 98/2/2 97/2/2
f 101/2/2 98/2/2 100/2/2
f 103/2/2 100/2/2 99/2/2
f 103/2/2 102/2/2 101/2/2
f 103/2/2 101/2/2 100/2/2
f 104/2/2 102/2/2 103/2/2
f 105/2/2 102/2/2 104/2/2
f 106/2/2 102/2/2 105/2/2
f 108/1/2 105/1/2 104/1/2
f 109/1/2 105/1/2 108/1/2
f 111/1/2 108/1/2 107/1/2
f 111/1/2 110/1/2 109/1/2
f 111/1/2 109/1/2 108/1/2
f 112/1/2 110/1/2 111/1/2
f 115/1/3 116/1/3 117/1/3
f 117/1/3 116/1/3 118/1/3
f 119/1/3 120/1/3 121/1/3
f 121/1/3 120/1/3 122/1/3
f 123/1/3 124/1/3 125/1/3
f 125/1/3 124/1/3 126/1/3
f 127/1/3 128/1/3 129/1/3
f 129/1/3 128/1/3 130/1/3
f 131/1/3 132/1/3 133/1/3
f 133/1/3 132/1/3 134/1/3
f 113/2/3 114/2/3 137/2/3
f 137/2/3 114/2/3 138/2/3
f 135/1/3 136/1/3 139/1/3
f 139/1/3 136/1/3 140/1/3
f 143/1/3 144/1/3 145/1/3
f 145/1/3 144/1/3 146/1/3
f 147/1/3 148/1/3 149/1/3
f 149/1/3 148/1/3 150/1/3
f 151/1/3 152/1/3 153/1/3
f 153/1/3 152/1/3 154/1/3
f 155/1/3 156/1/3 157/1/3
f 157/1/3 156/1/3 158/1/3
f 159/1/3 160/1/3 161/1/3
f 161/1/3 160/1/3 162/1/3
f 141/2/3 142/2/3 165/2/3
f 165/2/3 142/2/3 166/2/3
f 163/1/3 164/1/3 167/1/3
f 167/1/3 164/1/3 168/1/3
f 173/1/4 172/1/4 171/1/4
f 174/1/4 172/1/4 173/1/4
f 177/1/4 176/1/4 175/1/4
f 178/1/4 176/1/4 177/1/4
f 181/1/4 180/1/4 179/1/4
f 182/1/4 180/1/4 181/1/4
f 185/1/4 184/1/4 183/1/4
f 186/1/4 184/1/4 185/1/4
f 189/1/4 188/1/4 187/1/4
f 190/1/4 188/1/4 189/1/4
f 193/2/4 170/2/4 169/2/4
f 194/2/4 170/2/4 193/2/4
f 195/1/4 192/1/4 191/1/4
f 196/1/4 192/1/4 195/1/4
f 201/1/4 200/1/4 199/1/4
f 202/1/4 200/1/4 201/1/4
f 205/1/4 204/1/4 203/1/4
f 206/1/4 204/1/4 205/1/4
f 209/1/4 208/1/4 207/1/4
f 210/1/4 208/1/4 209/1/4
f 213/1/4 212/1/4 211/1/4
f 214/1/4 212/1/4 213/1/4
f 217/1/4 216/1/4 215/1/4
f 218/1/4 216/1/4 217/1/4
f 221/2/4 198/2/4 197/2/4
f 222/2/4 198/2/4 221/2/4
f 223/1/4 220/1/4 219/1/4
f 224/1/4 220/1/4 223/1/4
f 225/2/5 226/2/5 227/2/5
f 227/2/5 226/2/5 228/2/5
f 229/2/5 230/2/5 231/2/5
f 231/2/5 230/2/5 232/2/5
f 233/2/5 234/2/5 235/2/5
f 235/2/5 234/2/5 236/2/5
f 237/1/5 238/1/5 249/1/5
f 249/1/5 238/1/5 250/1/5
f 239/1/5 240/1/5 251/1/5
f 251/1/5 240/1/5 252/1/5
f 241/1/5 242/1/5 253/1/5
f 253/1/5 242/1/5 254/1/5
f 243/1/5 244/1/5 255/1/5
f 255/1/5 244/1/5 256/1/5
f 245/1/5 246/1/5 257/1/5
f 257/1/5 246/1/5 258/1/5
f 247/1/5 248/1/5 259/1/5
f 259/1/5 248/1/5 260/1/5
f 239/1/5 251/1/5 263/1/5
f 252/1/5 240/1/5 264/1/5
f 241/1/5 253/1/5 265/1/5
f 254/1/5 242/1/5 266/1/5
f 243/1/5 255/1/5 267/1/5
f 256/1/5 244/1/5 268/1/5
f 245/1/5 257/1/5 269/1/5
f 258/1/5 246/1/5 270/1/5
f 261/1/5 262/1/5 273/1/5
f 273/1/5 262/1/5 274/1/5
f 239/1/5 263/1/5 275/1/5
f 263/1/5 264/1/5 275/1/5
f 264/1/5 240/1/5 276/1/5
f 275/1/5 264/1/5 276/1/5
f 241/1/5 265/1/5 277/1/5
f 265/1/5 266/1/5 277/1/5
f 266/1/5 242/1/5 278/1/5
f 277/1/5 266/1/5 278/1/5
f 243/1/5 267/1/5 279/1/5
f 267/1/5 268/1/5 279/1/5
f 268/1/5 244/1/5 280/1/5
f 279/1/5 268/1/5 280/1/5
f 245/1/5 269/1/5 281/1/5
f 269/1/5 270/1/5 281/1/5
f 270/1/5 246/1/5 282/1/5
f 281/1/5 270/1/5 282/1/5
f 271/1/5 272/1/5 283/1/5
f 283/1/5 272/1/5 284/1/5
f 287/2/6 286/2/6 285/2/6
f 288/2/6 286/2/6 287/2/6
f 289/2/6 286/2/6 288/2/6
f 290/2/6 286/2/6 289/2/6
f 291/2/6 286/2/6 290/2/6
f 292/2/6 286/2/6 291/2/6
f 293/2/6 286/2/6 292/2/6
f 294/2/6 286/2/6 293/2/6
f 295/2/6 286/2/6 294/2/6
f 296/2/6 286/2/6 295/2/6
f 297/2/6 286/2/6 296/2/6
f 298/2/6 286/2/6 297/2/6
f 300/2/6 289/2/6 288/2/6
f 301/2/6 289/2/6 300/2/6
f 302/2/6 291/2/6 290/2/6
f 303/2/6 291/2/6 302/2/6
f 304/2/6 293/2/6 292/2/6
f 305/2/6 293/2/6 304/2/6
f 306/2/6 295/2/6 294/2/6
f 307/2/6 295/2/6 306/2/6
f 308/2/6 297/2/6 296/2/6
f 309/2/6 297/2/6 308/2/6
f 311/2/6 303/2/6 302/2/6
f 311/2/6 310/2/6 309/2/6
f 311/2/6 309/2/6 308/2/6
f 311/2/6 308/2/6 307/2/6
f 311/2/6 307/2/6 306/2/6
f 311/2/6 306/2/6 305/2/6
f 311/2/6 301/2/6 300/2/6
f 311/2/6 304/2/6 303/2/6
f 311/2/6 305/2/6 304/2/6
f 311/2/6 302/2/6 301/2/6
f 311/2/6 300/2/6 299/2/6
f 312/2/6 310/2/6 311/2/6
f 325/1/6 314/1/6 313/1/6
f 326/1/6 314/1/6 325/1/6
f 327/1/6 316/1/6 315/1/6
f 328/1/6 316/1/6 327/1/6
f 329/1/6 318/1/6 317/1/6
f 330/1/6 318/1/6 329/1/6
f 331/1/6 320/1/6 319/1/6
f 332/1/6 320/1/6 331/1/6
f 333/1/6 322/1/6 321/1/6
f 334/1/6 322/1/6 333/1/6
f 335/1/6 324/1/6 323/1/6
f 336/1/6 324/1/6 335/1/6
